{
  "accessors": [
    {
      "bufferView": 0,
      "componentType": 5125,
      "count": 372414,
      "type": "SCALAR"
    },
    {
      "bufferView": 1,
      "componentType": 5126,
      "count": 66696,
      "max": [
        4.76024103164673,
        4.76012706756592,
        18.4099998474121
      ],
      "min": [
        -4.76024103164673,
        -4.76000070571899,
        -1.9073486328125e-06
      ],
      "type": "VEC3"
    },
    {
      "bufferView": 2,
      "componentType": 5126,
      "count": 66696,
      "type": "VEC3"
    },
    {
      "bufferView": 3,
      "componentType": 5126,
      "count": 66696,
      "type": "VEC4"
    },
    {
      "bufferView": 4,
      "componentType": 5126,
      "count": 66696,
      "type": "VEC2"
    }
  ],
  "asset": {
    "generator": "Adobe Substance 3D Painter 11.0.0",
    "version": "2.0"
  },
  "bufferViews": [
    {
      "buffer": 0,
      "byteLength": 1489656,
      "target": 34963
    },
    {
      "buffer": 0,
      "byteLength": 800352,
      "byteOffset": 1489656,
      "target": 34962
    },
    {
      "buffer": 0,
      "byteLength": 800352,
      "byteOffset": 2290008,
      "target": 34962
    },
    {
      "buffer": 0,
      "byteLength": 1067136,
      "byteOffset": 3090360,
      "target": 34962
    },
    {
      "buffer": 0,
      "byteLength": 533568,
      "byteOffset": 4157496,
      "target": 34962
    }
  ],
  "buffers": [
    {
      "byteLength": 4691064,
      "uri": "PTRCQT26QV5UJQ33.bin"
    }
  ],
  "images": [
    {
      "uri": "ASSET_MAT_MR_baseColor_1001.png"
    },
    {
      "uri": "ASSET_MAT_MR_occlusionRoughnessMetallic_1001.png"
    },
    {
      "uri": "ASSET_MAT_MR_normal_1001.png"
    }
  ],
  "materials": [
    {
      "alphaMode": "OPAQUE",
      "name": "ASSET_MAT_MR_1001",
      "normalTexture": {
        "index": 2
      },
      "occlusionTexture": {
        "index": 1
      },
      "pbrMetallicRoughness": {
        "baseColorTexture": {
          "index": 0
        },
        "metallicRoughnessTexture": {
          "index": 1
        }
      }
    }
  ],
  "meshes": [
    {
      "name": "ASSET",
      "primitives": [
        {
          "attributes": {
            "NORMAL": 2,
            "POSITION": 1,
            "TANGENT": 3,
            "TEXCOORD_0": 4
          },
          "indices": 0,
          "material": 0,
          "mode": 4
        }
      ]
    }
  ],
  "nodes": [
    {
      "children": [
        1
      ],
      "name": "RootNode",
      "scale": [
        0.00999999977648258,
        0.00999999977648258,
        0.00999999977648258
      ]
    },
    {
      "children": [
        2
      ],
      "name": "ASSET",
      "rotation": [
        -0.707106828689575,
        0.0,
        0.0,
        0.707106709480286
      ],
      "translation": [
        2.92847471428104e-06,
        0.0,
        0.0
      ]
    },
    {
      "mesh": 0,
      "name": "ASSET"
    }
  ],
  "samplers": [
    {
      "magFilter": 9729,
      "minFilter": 9985,
      "wrapS": 10497,
      "wrapT": 10497
    }
  ],
  "scene": 0,
  "scenes": [
    {
      "name": "Scene",
      "nodes": [
        0
      ]
    }
  ],
  "textures": [
    {
      "sampler": 0,
      "source": 0
    },
    {
      "sampler": 0,
      "source": 1
    },
    {
      "sampler": 0,
      "source": 2
    }
  ]
}